solid Segment_14
	facet normal 0.00509662 -0.422162 -0.892049
		outer loop
			vertex -25.9297 -168.076 -360.963
			vertex -26.2516 -165.932 -362.051
			vertex -22.9952 -166.519 -362.044
		endloop
	endfacet 
	facet normal -0.0360506 -0.0713201 -0.981937
		outer loop
			vertex -22.9952 -166.519 -362.044
			vertex -26.2516 -165.932 -362.051
			vertex -24.1162 -164.343 -362.199
		endloop
	endfacet 
	facet normal 0.147286 0.10483 -0.960607
		outer loop
			vertex -21.0319 -164.357 -361.545
			vertex -22.9952 -166.519 -362.044
			vertex -24.1162 -164.343 -362.199
		endloop
	endfacet 
	facet normal -0.0637055 -0.460774 -0.874141
		outer loop
			vertex -29.4182 -167.286 -361.277
			vertex -26.2516 -165.932 -362.051
			vertex -25.9297 -168.076 -360.963
		endloop
	endfacet 
	facet normal 0.264195 -0.0230166 -0.943656
		outer loop
			vertex -21.0319 -164.357 -361.545
			vertex -20.2362 -167.533 -361.247
			vertex -22.9952 -166.519 -362.044
		endloop
	endfacet 
	facet normal -0.313978 0.336262 -0.874569
		outer loop
			vertex -26.2516 -165.932 -362.051
			vertex -29.0956 -165.372 -360.936
			vertex -26.4845 -163.662 -361.353
		endloop
	endfacet 
	facet normal -0.187994 0.302334 -0.914142
		outer loop
			vertex -24.1162 -164.343 -362.199
			vertex -26.2516 -165.932 -362.051
			vertex -26.4845 -163.662 -361.353
		endloop
	endfacet 
	facet normal -0.0258933 -0.685655 -0.721556
		outer loop
			vertex -29.2365 -168.918 -360.151
			vertex -25.9297 -168.076 -360.963
			vertex -26.6998 -170.798 -357.806
		endloop
	endfacet 
	facet normal -0.626661 -0.261334 -0.719798
		outer loop
			vertex -34.3201 -166.555 -359.205
			vertex -32.679 -168.223 -360.12
			vertex -35.0607 -167.537 -357.886
		endloop
	endfacet 
	facet normal -0.344613 -0.159402 -0.903614
		outer loop
			vertex -29.4182 -167.286 -361.277
			vertex -32.679 -168.223 -360.12
			vertex -32.1543 -166.563 -360.432
		endloop
	endfacet 
	facet normal -0.508882 0.00509935 -0.83929
		outer loop
			vertex -32.1543 -166.563 -360.432
			vertex -32.679 -168.223 -360.12
			vertex -34.3201 -166.555 -359.205
		endloop
	endfacet 
	facet normal -0.35202 0.220893 -0.900326
		outer loop
			vertex -29.0956 -165.372 -360.936
			vertex -29.4182 -167.286 -361.277
			vertex -32.1543 -166.563 -360.432
		endloop
	endfacet 
	facet normal -0.0678738 -0.572775 -0.806488
		outer loop
			vertex -25.9297 -168.076 -360.963
			vertex -29.2365 -168.918 -360.151
			vertex -29.4182 -167.286 -361.277
		endloop
	endfacet 
	facet normal -0.0303952 -0.59179 -0.79675
		outer loop
			vertex -22.1866 -169.424 -359.638
			vertex -25.9297 -168.076 -360.963
			vertex -22.9952 -166.519 -362.044
		endloop
	endfacet 
	facet normal -0.301747 0.220909 -0.916682
		outer loop
			vertex -29.4182 -167.286 -361.277
			vertex -29.0956 -165.372 -360.936
			vertex -26.2516 -165.932 -362.051
		endloop
	endfacet 
	facet normal 0.510056 0.120885 -0.821935
		outer loop
			vertex -18.2085 -167.623 -360.301
			vertex -21.0319 -164.357 -361.545
			vertex -18.2114 -165.082 -359.969
		endloop
	endfacet 
	facet normal 0.413373 0.00739094 -0.886762
		outer loop
			vertex -20.2362 -167.533 -361.247
			vertex -21.0319 -164.357 -361.545
			vertex -18.2085 -167.623 -360.301
		endloop
	endfacet 
	facet normal -0.422324 0.528362 -0.707683
		outer loop
			vertex -29.0956 -165.372 -360.936
			vertex -28.2971 -163.263 -359.65
			vertex -26.4845 -163.662 -361.353
		endloop
	endfacet 
	facet normal 0.102989 0.403639 -0.887757
		outer loop
			vertex -24.1162 -164.343 -362.199
			vertex -24.2869 -161.614 -360.382
			vertex -21.0319 -164.357 -361.545
		endloop
	endfacet 
	facet normal 0.14211 0.445888 -0.861543
		outer loop
			vertex -24.2869 -161.614 -360.382
			vertex -21.6415 -161.063 -359.799
			vertex -21.0319 -164.357 -361.545
		endloop
	endfacet 
	facet normal 0.521446 0.289757 -0.770798
		outer loop
			vertex -21.0319 -164.357 -361.545
			vertex -19.7125 -162.715 -360.264
			vertex -18.2114 -165.082 -359.969
		endloop
	endfacet 
	facet normal 0.699747 0.434496 -0.523806
		outer loop
			vertex -19.7125 -162.715 -360.264
			vertex -18.2804 -163.333 -358.824
			vertex -18.2114 -165.082 -359.969
		endloop
	endfacet 
	facet normal -0.446277 0.590567 -0.646133
		outer loop
			vertex -26.563 -162.12 -360.194
			vertex -26.4845 -163.662 -361.353
			vertex -28.2971 -163.263 -359.65
		endloop
	endfacet 
	facet normal -0.156769 0.516167 -0.828794
		outer loop
			vertex -24.1162 -164.343 -362.199
			vertex -26.4845 -163.662 -361.353
			vertex -24.2869 -161.614 -360.382
		endloop
	endfacet 
	facet normal 0.312578 0.386843 -0.842867
		outer loop
			vertex -19.7125 -162.715 -360.264
			vertex -21.0319 -164.357 -361.545
			vertex -21.6415 -161.063 -359.799
		endloop
	endfacet 
	facet normal -0.276098 0.619721 -0.717308
		outer loop
			vertex -24.2869 -161.614 -360.382
			vertex -26.4845 -163.662 -361.353
			vertex -26.563 -162.12 -360.194
		endloop
	endfacet 
	facet normal -0.650618 -0.379956 -0.630118
		outer loop
			vertex -35.0607 -167.537 -357.886
			vertex -32.679 -168.223 -360.12
			vertex -33.226 -170.004 -358.322
		endloop
	endfacet 
	facet normal -0.163069 -0.72014 -0.663407
		outer loop
			vertex -33.226 -170.004 -358.322
			vertex -32.679 -168.223 -360.12
			vertex -30.6863 -170.14 -358.764
		endloop
	endfacet 
	facet normal -0.0916883 -0.686743 -0.717462
		outer loop
			vertex -32.679 -168.223 -360.12
			vertex -29.2365 -168.918 -360.151
			vertex -30.6863 -170.14 -358.764
		endloop
	endfacet 
	facet normal -0.0874208 -0.644547 -0.749472
		outer loop
			vertex -20.2964 -171.738 -357.55
			vertex -22.1866 -169.424 -359.638
			vertex -18.5374 -170.547 -359.106
		endloop
	endfacet 
	facet normal 0.0390692 -0.603445 -0.789121
		outer loop
			vertex -18.5374 -170.547 -359.106
			vertex -22.1866 -169.424 -359.638
			vertex -20.2362 -167.533 -361.247
		endloop
	endfacet 
	facet normal -0.125373 -0.540961 -0.82117
		outer loop
			vertex -29.2365 -168.918 -360.151
			vertex -32.679 -168.223 -360.12
			vertex -29.4182 -167.286 -361.277
		endloop
	endfacet 
	facet normal -0.027602 -0.693105 -0.714414
		outer loop
			vertex -22.1866 -169.424 -359.638
			vertex -26.6998 -170.798 -357.806
			vertex -25.9297 -168.076 -360.963
		endloop
	endfacet 
	facet normal 0.00924213 -0.611383 -0.784687
		outer loop
			vertex -20.2362 -167.533 -361.247
			vertex -22.1866 -169.424 -359.638
			vertex -22.9952 -166.519 -362.044
		endloop
	endfacet 
	facet normal 0.270808 -0.338342 -0.884057
		outer loop
			vertex -18.5374 -170.547 -359.106
			vertex -20.2362 -167.533 -361.247
			vertex -18.2085 -167.623 -360.301
		endloop
	endfacet 
	facet normal -0.42952 0.592097 -0.65961
		outer loop
			vertex -33.2968 -165.955 -359.366
			vertex -32.1543 -166.563 -360.432
			vertex -34.3201 -166.555 -359.205
		endloop
	endfacet 
	facet normal 0.825456 0.377162 -0.377687
		outer loop
			vertex -18.2804 -163.333 -358.824
			vertex -16.7111 -165.375 -356.75
			vertex -18.2114 -165.082 -359.969
		endloop
	endfacet 
	facet normal -0.450484 0.638016 -0.582823
		outer loop
			vertex -28.2971 -163.263 -359.65
			vertex -29.0956 -165.372 -360.936
			vertex -31.1936 -164.84 -358.789
		endloop
	endfacet 
	facet normal -0.398115 0.808452 -0.409584
		outer loop
			vertex -24.2869 -161.614 -360.382
			vertex -26.563 -162.12 -360.194
			vertex -26.7833 -161.408 -358.011
		endloop
	endfacet 
	facet normal 0.0328537 0.588536 -0.802834
		outer loop
			vertex -21.6415 -161.063 -359.799
			vertex -24.2869 -161.614 -360.382
			vertex -23.0897 -159.825 -358.915
		endloop
	endfacet 
	facet normal -0.689306 -0.52246 -0.481326
		outer loop
			vertex -35.0607 -167.537 -357.886
			vertex -33.226 -170.004 -358.322
			vertex -34.4947 -169.698 -356.822
		endloop
	endfacet 
	facet normal -0.0465302 -0.730492 -0.678
		outer loop
			vertex -30.6863 -170.14 -358.764
			vertex -29.2365 -168.918 -360.151
			vertex -26.6998 -170.798 -357.806
		endloop
	endfacet 
	facet normal 0.289423 -0.376605 -0.857259
		outer loop
			vertex -18.5374 -170.547 -359.106
			vertex -18.2085 -167.623 -360.301
			vertex -16.6128 -170.507 -358.409
		endloop
	endfacet 
	facet normal 0.794056 0.0387905 -0.573386
		outer loop
			vertex -16.3791 -168.01 -357.942
			vertex -16.6128 -170.507 -358.409
			vertex -18.2085 -167.623 -360.301
		endloop
	endfacet 
	facet normal 0.7613 0.145788 -0.603844
		outer loop
			vertex -18.2085 -167.623 -360.301
			vertex -18.2114 -165.082 -359.969
			vertex -16.3791 -168.01 -357.942
		endloop
	endfacet 
	facet normal -0.816035 0.488766 -0.164346
		outer loop
			vertex -34.6565 -165.515 -356.376
			vertex -34.3201 -166.555 -359.205
			vertex -35.0607 -167.537 -357.886
		endloop
	endfacet 
	facet normal -0.380641 0.73634 -0.549809
		outer loop
			vertex -33.2968 -165.955 -359.366
			vertex -31.1936 -164.84 -358.789
			vertex -32.1543 -166.563 -360.432
		endloop
	endfacet 
	facet normal 0.860639 0.249096 -0.40966
		outer loop
			vertex -16.3791 -168.01 -357.942
			vertex -18.2114 -165.082 -359.969
			vertex -16.7111 -165.375 -356.75
		endloop
	endfacet 
	facet normal -0.571088 0.738118 -0.30816
		outer loop
			vertex -34.3201 -166.555 -359.205
			vertex -34.6565 -165.515 -356.376
			vertex -33.4529 -165.217 -357.505
		endloop
	endfacet 
	facet normal -0.473764 0.747388 -0.435562
		outer loop
			vertex -33.2968 -165.955 -359.366
			vertex -34.3201 -166.555 -359.205
			vertex -33.4529 -165.217 -357.505
		endloop
	endfacet 
	facet normal -0.404336 0.796973 -0.436418
		outer loop
			vertex -31.1936 -164.84 -358.789
			vertex -33.2968 -165.955 -359.366
			vertex -33.4529 -165.217 -357.505
		endloop
	endfacet 
	facet normal -0.405029 0.700726 -0.574407
		outer loop
			vertex -29.0956 -165.372 -360.936
			vertex -32.1543 -166.563 -360.432
			vertex -31.1936 -164.84 -358.789
		endloop
	endfacet 
	facet normal -0.521009 0.778409 -0.316237
		outer loop
			vertex -28.2971 -163.263 -359.65
			vertex -29.2872 -163.02 -357.305
			vertex -26.7833 -161.408 -358.011
		endloop
	endfacet 
	facet normal -0.500751 0.757356 -0.394687
		outer loop
			vertex -26.7833 -161.408 -358.011
			vertex -26.563 -162.12 -360.194
			vertex -28.2971 -163.263 -359.65
		endloop
	endfacet 
	facet normal 0.690261 0.635082 -0.310122
		outer loop
			vertex -19.6666 -161.479 -357.491
			vertex -18.2804 -163.333 -358.824
			vertex -19.7125 -162.715 -360.264
		endloop
	endfacet 
	facet normal 0.603671 0.726882 -0.300266
		outer loop
			vertex -19.7125 -162.715 -360.264
			vertex -21.6415 -161.063 -359.799
			vertex -19.6666 -161.479 -357.491
		endloop
	endfacet 
	facet normal -0.482351 0.7717 -0.390901
		outer loop
			vertex -23.0897 -159.825 -358.915
			vertex -24.2869 -161.614 -360.382
			vertex -24.2289 -159.937 -357.305
		endloop
	endfacet 
	facet normal -0.40977 0.801095 -0.383768
		outer loop
			vertex -24.2869 -161.614 -360.382
			vertex -26.7833 -161.408 -358.011
			vertex -24.2289 -159.937 -357.305
		endloop
	endfacet 
	facet normal -0.0290212 -0.554519 -0.821026
		outer loop
			vertex -18.5374 -170.547 -359.106
			vertex -16.67 -173.988 -356.553
			vertex -18.5372 -173.398 -356.901
		endloop
	endfacet 
	facet normal 0.166663 -0.498746 -0.841388
		outer loop
			vertex -16.67 -173.988 -356.553
			vertex -18.5374 -170.547 -359.106
			vertex -16.6128 -170.507 -358.409
		endloop
	endfacet 
	facet normal -0.0734171 -0.724447 -0.680975
		outer loop
			vertex -23.1633 -172.57 -355.867
			vertex -26.6998 -170.798 -357.806
			vertex -22.1866 -169.424 -359.638
		endloop
	endfacet 
	facet normal -0.146726 -0.687308 -0.707564
		outer loop
			vertex -20.2964 -171.738 -357.55
			vertex -23.1633 -172.57 -355.867
			vertex -22.1866 -169.424 -359.638
		endloop
	endfacet 
	facet normal -0.946456 -0.219108 0.0712544
		outer loop
			vertex -35.0607 -167.537 -357.886
			vertex -34.4947 -169.698 -356.822
			vertex -34.9105 -167.99 -354.45
		endloop
	endfacet 
	facet normal -0.447756 0.838486 -0.27093
		outer loop
			vertex -31.1936 -164.84 -358.789
			vertex -31.5766 -163.92 -355.335
			vertex -29.2872 -163.02 -357.305
		endloop
	endfacet 
	facet normal -0.498993 0.760396 -0.388778
		outer loop
			vertex -31.1936 -164.84 -358.789
			vertex -29.2872 -163.02 -357.305
			vertex -28.2971 -163.263 -359.65
		endloop
	endfacet 
	facet normal -0.489796 0.850414 -0.136427
		outer loop
			vertex -26.7833 -161.408 -358.011
			vertex -29.2872 -163.02 -357.305
			vertex -28.6962 -162.333 -354.566
		endloop
	endfacet 
	facet normal 0.739512 0.62073 -0.206894
		outer loop
			vertex -18.2804 -163.333 -358.824
			vertex -19.6666 -161.479 -357.491
			vertex -17.6438 -163.376 -355.997
		endloop
	endfacet 
	facet normal -0.389887 0.902856 -0.0541436
		outer loop
			vertex -26.7833 -161.408 -358.011
			vertex -25.935 -160.757 -355.209
			vertex -24.2289 -159.937 -357.305
		endloop
	endfacet 
	facet normal 0.52685 0.80772 -0.261372
		outer loop
			vertex -22.0296 -159.862 -357.014
			vertex -21.6415 -161.063 -359.799
			vertex -23.0897 -159.825 -358.915
		endloop
	endfacet 
	facet normal 0.561922 0.791036 -0.230281
		outer loop
			vertex -22.0296 -159.862 -357.014
			vertex -19.6666 -161.479 -357.491
			vertex -21.6415 -161.063 -359.799
		endloop
	endfacet 
	facet normal -0.0830611 0.986596 0.102861
		outer loop
			vertex -22.0296 -159.862 -357.014
			vertex -23.0897 -159.825 -358.915
			vertex -24.2289 -159.937 -357.305
		endloop
	endfacet 
	facet normal 0.87091 -0.157569 -0.443556
		outer loop
			vertex -16.67 -173.988 -356.553
			vertex -16.6128 -170.507 -358.409
			vertex -15.3831 -171.259 -356.025
		endloop
	endfacet 
	facet normal -0.24246 -0.639546 -0.721941
		outer loop
			vertex -23.1633 -172.57 -355.867
			vertex -20.2964 -171.738 -357.55
			vertex -20.6667 -174.452 -355.11
		endloop
	endfacet 
	facet normal -0.188787 -0.622773 -0.756638
		outer loop
			vertex -18.5374 -170.547 -359.106
			vertex -18.5372 -173.398 -356.901
			vertex -20.2964 -171.738 -357.55
		endloop
	endfacet 
	facet normal -0.260691 -0.59552 -0.755561
		outer loop
			vertex -18.5372 -173.398 -356.901
			vertex -20.6667 -174.452 -355.11
			vertex -20.2964 -171.738 -357.55
		endloop
	endfacet 
	facet normal -0.537923 -0.711759 -0.396467
		outer loop
			vertex -34.4947 -169.698 -356.822
			vertex -33.226 -170.004 -358.322
			vertex -32.452 -171.799 -356.03
		endloop
	endfacet 
	facet normal -0.72455 -0.662947 -0.120022
		outer loop
			vertex -32.8113 -171.781 -354.387
			vertex -34.4947 -169.698 -356.822
			vertex -32.452 -171.799 -356.03
		endloop
	endfacet 
	facet normal -0.148702 -0.781696 -0.597473
		outer loop
			vertex -33.226 -170.004 -358.322
			vertex -30.6863 -170.14 -358.764
			vertex -30.0053 -172.21 -356.011
		endloop
	endfacet 
	facet normal -0.221333 -0.806032 -0.540037
		outer loop
			vertex -32.452 -171.799 -356.03
			vertex -33.226 -170.004 -358.322
			vertex -30.0053 -172.21 -356.011
		endloop
	endfacet 
	facet normal -0.0622636 -0.78076 -0.61808
		outer loop
			vertex -26.6998 -170.798 -357.806
			vertex -30.0053 -172.21 -356.011
			vertex -30.6863 -170.14 -358.764
		endloop
	endfacet 
	facet normal 0.890741 -0.00868045 -0.434911
		outer loop
			vertex -15.3831 -171.259 -356.025
			vertex -16.6128 -170.507 -358.409
			vertex -16.3791 -168.01 -357.942
		endloop
	endfacet 
	facet normal -0.407198 0.851368 -0.302252
		outer loop
			vertex -33.4529 -165.217 -357.505
			vertex -31.5766 -163.92 -355.335
			vertex -31.1936 -164.84 -358.789
		endloop
	endfacet 
	facet normal -0.481555 0.843478 -0.202949
		outer loop
			vertex -33.4529 -165.217 -357.505
			vertex -34.6565 -165.515 -356.376
			vertex -33.4764 -164.585 -355.41
		endloop
	endfacet 
	facet normal -0.412898 0.883569 -0.20436
		outer loop
			vertex -31.5766 -163.92 -355.335
			vertex -33.4529 -165.217 -357.505
			vertex -33.4764 -164.585 -355.41
		endloop
	endfacet 
	facet normal 0.832264 0.485749 -0.225025
		outer loop
			vertex -18.2804 -163.333 -358.824
			vertex -17.6438 -163.376 -355.997
			vertex -16.7111 -165.375 -356.75
		endloop
	endfacet 
	facet normal -0.439423 0.882943 -0.0154682
		outer loop
			vertex -25.935 -160.757 -355.209
			vertex -26.7833 -161.408 -358.011
			vertex -28.6962 -162.333 -354.566
		endloop
	endfacet 
	facet normal 0.48322 0.856989 -0.0676558
		outer loop
			vertex -19.6666 -161.479 -357.491
			vertex -22.0296 -159.862 -357.014
			vertex -20.4112 -160.717 -353.982
		endloop
	endfacet 
	facet normal -0.124613 -0.526168 -0.83045
		outer loop
			vertex -18.4652 -176.424 -355.003
			vertex -18.5372 -173.398 -356.901
			vertex -16.67 -173.988 -356.553
		endloop
	endfacet 
	facet normal 0.902767 -0.226488 -0.329614
		outer loop
			vertex -15.4999 -174.368 -353.926
			vertex -16.67 -173.988 -356.553
			vertex -15.3831 -171.259 -356.025
		endloop
	endfacet 
	facet normal -0.256134 -0.532929 -0.80182
		outer loop
			vertex -18.4652 -176.424 -355.003
			vertex -20.6667 -174.452 -355.11
			vertex -18.5372 -173.398 -356.901
		endloop
	endfacet 
	facet normal -0.90197 -0.380791 0.110873
		outer loop
			vertex -34.4947 -169.698 -356.822
			vertex -33.7865 -170.203 -353.31
			vertex -34.9105 -167.99 -354.45
		endloop
	endfacet 
	facet normal -0.805815 -0.575075 0.0247909
		outer loop
			vertex -33.7865 -170.203 -353.31
			vertex -34.4947 -169.698 -356.822
			vertex -32.8113 -171.781 -354.387
		endloop
	endfacet 
	facet normal 0.965305 0.0290602 -0.186591
		outer loop
			vertex -15.2093 -168.009 -353.067
			vertex -14.7607 -170.857 -352.985
			vertex -15.3831 -171.259 -356.025
		endloop
	endfacet 
	facet normal 0.931431 0.0918344 -0.305784
		outer loop
			vertex -16.3791 -168.01 -357.942
			vertex -15.2093 -168.009 -353.067
			vertex -15.3831 -171.259 -356.025
		endloop
	endfacet 
	facet normal 0.921629 0.235167 -0.26919
		outer loop
			vertex -16.7111 -165.375 -356.75
			vertex -15.2093 -168.009 -353.067
			vertex -16.3791 -168.01 -357.942
		endloop
	endfacet 
	facet normal 0.857855 0.478339 -0.138038
		outer loop
			vertex -16.7111 -165.375 -356.75
			vertex -17.6438 -163.376 -355.997
			vertex -16.118 -165.134 -350.994
		endloop
	endfacet 
	facet normal -0.379608 0.899244 0.170873
		outer loop
			vertex -26.9739 -162.068 -352.372
			vertex -25.935 -160.757 -355.209
			vertex -28.6962 -162.333 -354.566
		endloop
	endfacet 
	facet normal -0.145865 -0.417781 -0.887811
		outer loop
			vertex -18.7459 -179.152 -353.735
			vertex -18.4652 -176.424 -355.003
			vertex -17.1045 -178.335 -353.974
		endloop
	endfacet 
	facet normal -0.0485129 -0.475254 -0.869124
		outer loop
			vertex -17.1045 -178.335 -353.974
			vertex -18.4652 -176.424 -355.003
			vertex -16.67 -173.988 -356.553
		endloop
	endfacet 
	facet normal 0.890762 -0.332157 -0.277541
		outer loop
			vertex -15.4999 -174.368 -353.926
			vertex -17.1045 -178.335 -353.974
			vertex -16.67 -173.988 -356.553
		endloop
	endfacet 
	facet normal -0.347698 -0.471782 -0.798788
		outer loop
			vertex -20.8193 -177.917 -353.029
			vertex -20.6667 -174.452 -355.11
			vertex -18.4652 -176.424 -355.003
		endloop
	endfacet 
	facet normal -0.390145 -0.510608 -0.758156
		outer loop
			vertex -20.6667 -174.452 -355.11
			vertex -20.8193 -177.917 -353.029
			vertex -23.4162 -175.993 -352.669
		endloop
	endfacet 
	facet normal -0.104989 -0.745008 -0.654006
		outer loop
			vertex -23.1633 -172.57 -355.867
			vertex -26.4343 -174.259 -353.561
			vertex -26.6998 -170.798 -357.806
		endloop
	endfacet 
	facet normal -0.280349 -0.615782 -0.727567
		outer loop
			vertex -20.6667 -174.452 -355.11
			vertex -23.4162 -175.993 -352.669
			vertex -23.1633 -172.57 -355.867
		endloop
	endfacet 
	facet normal 0.960613 -0.143924 -0.16513
		outer loop
			vertex -15.3831 -171.259 -356.025
			vertex -14.7607 -170.857 -352.985
			vertex -15.4999 -174.368 -353.926
		endloop
	endfacet 
	facet normal -0.588178 -0.774267 -0.170606
		outer loop
			vertex -29.5183 -174.561 -351.835
			vertex -32.8113 -171.781 -354.387
			vertex -32.452 -171.799 -356.03
		endloop
	endfacet 
	facet normal -0.0856948 -0.783923 -0.610187
		outer loop
			vertex -26.4343 -174.259 -353.561
			vertex -30.0053 -172.21 -356.011
			vertex -26.6998 -170.798 -357.806
		endloop
	endfacet 
	facet normal -0.979401 0.0219843 0.104229
		outer loop
			vertex -35.0607 -167.537 -357.886
			vertex -34.9105 -167.99 -354.45
			vertex -34.7208 -165.972 -353.893
		endloop
	endfacet 
	facet normal -0.945781 0.274482 0.0297161
		outer loop
			vertex -34.6565 -165.515 -356.376
			vertex -35.0607 -167.537 -357.886
			vertex -34.7208 -165.972 -353.893
		endloop
	endfacet 
	facet normal -0.55337 0.812367 -0.080846
		outer loop
			vertex -33.4764 -164.585 -355.41
			vertex -34.6565 -165.515 -356.376
			vertex -33.4207 -164.484 -353.587
		endloop
	endfacet 
	facet normal -0.461345 0.870858 -0.106981
		outer loop
			vertex -29.2872 -163.02 -357.305
			vertex -31.5766 -163.92 -355.335
			vertex -28.6962 -162.333 -354.566
		endloop
	endfacet 
	facet normal 0.709498 0.686493 -0.0995958
		outer loop
			vertex -18.1794 -162.555 -352.571
			vertex -17.6438 -163.376 -355.997
			vertex -19.6666 -161.479 -357.491
		endloop
	endfacet 
	facet normal 0.0837709 0.962932 0.180861
		outer loop
			vertex -22.0296 -159.862 -357.014
			vertex -23.3146 -160.725 -353.189
			vertex -20.4112 -160.717 -353.982
		endloop
	endfacet 
	facet normal -0.237096 0.943735 0.183245
		outer loop
			vertex -23.3146 -160.725 -353.189
			vertex -24.2289 -159.937 -357.305
			vertex -25.935 -160.757 -355.209
		endloop
	endfacet 
	facet normal -0.11346 0.96834 0.190374
		outer loop
			vertex -22.0296 -159.862 -357.014
			vertex -24.2289 -159.937 -357.305
			vertex -23.3146 -160.725 -353.189
		endloop
	endfacet 
	facet normal -0.418631 -0.494125 -0.739923
		outer loop
			vertex -19.7594 -180.279 -352.824
			vertex -18.4007 -180.78 -353.158
			vertex -19.6509 -181.426 -351.917
		endloop
	endfacet 
	facet normal -0.322554 -0.413176 -0.841353
		outer loop
			vertex -18.7459 -179.152 -353.735
			vertex -18.4007 -180.78 -353.158
			vertex -19.7594 -180.279 -352.824
		endloop
	endfacet 
	facet normal -0.156728 -0.409592 -0.889292
		outer loop
			vertex -18.7459 -179.152 -353.735
			vertex -17.1045 -178.335 -353.974
			vertex -18.4007 -180.78 -353.158
		endloop
	endfacet 
	facet normal -0.313529 -0.407549 -0.846104
		outer loop
			vertex -18.7459 -179.152 -353.735
			vertex -20.8193 -177.917 -353.029
			vertex -18.4652 -176.424 -355.003
		endloop
	endfacet 
	facet normal 0.918362 -0.335185 0.00617511
		outer loop
			vertex -17.1045 -178.335 -353.974
			vertex -15.4999 -174.368 -353.926
			vertex -16.9975 -177.705 -351.28
		endloop
	endfacet 
	facet normal -0.278633 -0.832545 -0.455771
		outer loop
			vertex -32.452 -171.799 -356.03
			vertex -30.0053 -172.21 -356.011
			vertex -29.5183 -174.561 -351.835
		endloop
	endfacet 
	facet normal 0.951387 -0.23924 0.0205859
		outer loop
			vertex -15.4999 -174.368 -353.926
			vertex -14.7607 -170.857 -352.985
			vertex -15.0007 -171.541 -351.301
		endloop
	endfacet 
	facet normal 0.912038 0.355824 -0.15023
		outer loop
			vertex -16.118 -165.134 -350.994
			vertex -15.2093 -168.009 -353.067
			vertex -16.7111 -165.375 -356.75
		endloop
	endfacet 
	facet normal -0.727274 0.640504 0.0362136
		outer loop
			vertex -34.6565 -165.515 -356.376
			vertex -34.7208 -165.972 -353.893
			vertex -33.4207 -164.484 -353.587
		endloop
	endfacet 
	facet normal -0.458908 0.876031 -0.0740819
		outer loop
			vertex -33.4764 -164.585 -355.41
			vertex -33.4207 -164.484 -353.587
			vertex -31.5766 -163.92 -355.335
		endloop
	endfacet 
	facet normal 0.788963 0.599303 -0.0622116
		outer loop
			vertex -18.1794 -162.555 -352.571
			vertex -16.118 -165.134 -350.994
			vertex -17.6438 -163.376 -355.997
		endloop
	endfacet 
	facet normal -0.411537 0.897675 0.041308
		outer loop
			vertex -31.5766 -163.92 -355.335
			vertex -31.235 -163.796 -351.853
			vertex -28.6962 -162.333 -354.566
		endloop
	endfacet 
	facet normal 0.623911 0.770117 -0.0585682
		outer loop
			vertex -19.6666 -161.479 -357.491
			vertex -20.4112 -160.717 -353.982
			vertex -18.1794 -162.555 -352.571
		endloop
	endfacet 
	facet normal -0.271536 0.917284 0.257672
		outer loop
			vertex -26.9739 -162.068 -352.372
			vertex -23.3146 -160.725 -353.189
			vertex -25.935 -160.757 -355.209
		endloop
	endfacet 
	facet normal 0.0630623 0.951215 0.245984
		outer loop
			vertex -23.3146 -160.725 -353.189
			vertex -20.6871 -161.128 -351.235
			vertex -20.4112 -160.717 -353.982
		endloop
	endfacet 
	facet normal 0.267548 -0.940899 -0.207431
		outer loop
			vertex -17.9297 -180.898 -352.09
			vertex -19.6509 -181.426 -351.917
			vertex -18.4007 -180.78 -353.158
		endloop
	endfacet 
	facet normal 0.846059 -0.449178 -0.256105
		outer loop
			vertex -17.1045 -178.335 -353.974
			vertex -17.9297 -180.898 -352.09
			vertex -18.4007 -180.78 -353.158
		endloop
	endfacet 
	facet normal -0.540049 -0.51463 -0.655887
		outer loop
			vertex -19.7594 -180.279 -352.824
			vertex -19.6509 -181.426 -351.917
			vertex -21.1952 -180.102 -351.69
		endloop
	endfacet 
	facet normal 0.89053 -0.397355 0.0690878
		outer loop
			vertex -16.9975 -177.705 -351.28
			vertex -17.9297 -180.898 -352.09
			vertex -17.1045 -178.335 -353.974
		endloop
	endfacet 
	facet normal -0.525522 -0.444405 -0.717253
		outer loop
			vertex -19.7594 -180.279 -352.824
			vertex -21.1952 -180.102 -351.69
			vertex -20.8193 -177.917 -353.029
		endloop
	endfacet 
	facet normal -0.402819 -0.394813 -0.814958
		outer loop
			vertex -19.7594 -180.279 -352.824
			vertex -20.8193 -177.917 -353.029
			vertex -18.7459 -179.152 -353.735
		endloop
	endfacet 
	facet normal 0.920454 -0.298901 0.222333
		outer loop
			vertex -15.9072 -173.86 -351.12
			vertex -16.9975 -177.705 -351.28
			vertex -15.4999 -174.368 -353.926
		endloop
	endfacet 
	facet normal -0.216188 -0.684104 -0.686222
		outer loop
			vertex -23.4162 -175.993 -352.669
			vertex -26.4343 -174.259 -353.561
			vertex -23.1633 -172.57 -355.867
		endloop
	endfacet 
	facet normal 0.921096 -0.316317 0.196476
		outer loop
			vertex -15.9072 -173.86 -351.12
			vertex -15.4999 -174.368 -353.926
			vertex -15.0007 -171.541 -351.301
		endloop
	endfacet 
	facet normal -0.202421 -0.807144 -0.533862
		outer loop
			vertex -26.4343 -174.259 -353.561
			vertex -29.5183 -174.561 -351.835
			vertex -30.0053 -172.21 -356.011
		endloop
	endfacet 
	facet normal -0.711525 -0.695105 -0.0173741
		outer loop
			vertex -29.5183 -174.561 -351.835
			vertex -31.4386 -172.894 -350.237
			vertex -32.8113 -171.781 -354.387
		endloop
	endfacet 
	facet normal -0.786262 -0.601434 0.0651581
		outer loop
			vertex -31.4386 -172.894 -350.237
			vertex -33.7865 -170.203 -353.31
			vertex -32.8113 -171.781 -354.387
		endloop
	endfacet 
	facet normal -0.923306 -0.30194 0.188066
		outer loop
			vertex -33.7865 -170.203 -353.31
			vertex -33.648 -169.207 -350.775
			vertex -34.9105 -167.99 -354.45
		endloop
	endfacet 
	facet normal -0.938721 -0.0972086 0.268886
		outer loop
			vertex -33.2591 -167.586 -349.226
			vertex -34.9105 -167.99 -354.45
			vertex -33.648 -169.207 -350.775
		endloop
	endfacet 
	facet normal -0.952125 0.0346257 0.247242
		outer loop
			vertex -34.7208 -165.972 -353.893
			vertex -34.9105 -167.99 -354.45
			vertex -33.2591 -167.586 -349.226
		endloop
	endfacet 
	facet normal -0.888797 0.295111 0.31078
		outer loop
			vertex -33.2949 -165.051 -351.116
			vertex -34.7208 -165.972 -353.893
			vertex -33.2591 -167.586 -349.226
		endloop
	endfacet 
	facet normal -0.443461 0.878331 0.0513763
		outer loop
			vertex -31.5766 -163.92 -355.335
			vertex -33.4207 -164.484 -353.587
			vertex -31.235 -163.796 -351.853
		endloop
	endfacet 
	facet normal 0.766438 0.629641 -0.0327597
		outer loop
			vertex -16.6542 -164.098 -346.672
			vertex -16.118 -165.134 -350.994
			vertex -18.1794 -162.555 -352.571
		endloop
	endfacet 
	facet normal -0.391237 0.896329 0.178007
		outer loop
			vertex -28.6962 -162.333 -354.566
			vertex -31.235 -163.796 -351.853
			vertex -29.1511 -162.926 -352.047
		endloop
	endfacet 
	facet normal -0.363184 0.896141 0.213539
		outer loop
			vertex -28.6962 -162.333 -354.566
			vertex -29.1511 -162.926 -352.047
			vertex -26.9739 -162.068 -352.372
		endloop
	endfacet 
	facet normal -0.221268 0.89821 0.365058
		outer loop
			vertex -26.9739 -162.068 -352.372
			vertex -25.6369 -163.257 -349.212
			vertex -23.3146 -160.725 -353.189
		endloop
	endfacet 
	facet normal -0.184198 0.892485 0.401942
		outer loop
			vertex -25.6369 -163.257 -349.212
			vertex -22.0623 -162.447 -348.939
			vertex -23.3146 -160.725 -353.189
		endloop
	endfacet 
	facet normal 0.269642 -0.943224 -0.193709
		outer loop
			vertex -19.6509 -181.426 -351.917
			vertex -17.9297 -180.898 -352.09
			vertex -19.3864 -181.57 -350.757
		endloop
	endfacet 
	facet normal 0.811862 -0.428989 0.356947
		outer loop
			vertex -17.9297 -180.898 -352.09
			vertex -16.9975 -177.705 -351.28
			vertex -18.6727 -180.26 -349.792
		endloop
	endfacet 
	facet normal -0.540785 -0.477376 -0.684144
		outer loop
			vertex -22.8814 -178.704 -351.125
			vertex -20.8193 -177.917 -353.029
			vertex -21.1952 -180.102 -351.69
		endloop
	endfacet 
	facet normal -0.30037 -0.769195 -0.543627
		outer loop
			vertex -25.4379 -177.738 -350.21
			vertex -29.5183 -174.561 -351.835
			vertex -26.4343 -174.259 -353.561
		endloop
	endfacet 
	facet normal -0.837873 -0.521298 0.125626
		outer loop
			vertex -32.0787 -171.465 -348.231
			vertex -33.7865 -170.203 -353.31
			vertex -31.4386 -172.894 -350.237
		endloop
	endfacet 
	facet normal -0.891143 -0.396962 0.188745
		outer loop
			vertex -33.7865 -170.203 -353.31
			vertex -32.0787 -171.465 -348.231
			vertex -33.648 -169.207 -350.775
		endloop
	endfacet 
	facet normal -0.705251 0.636844 0.200878
		outer loop
			vertex -33.4207 -164.484 -353.587
			vertex -34.7208 -165.972 -353.893
			vertex -33.2949 -165.051 -351.116
		endloop
	endfacet 
	facet normal -0.492231 0.84148 0.187978
		outer loop
			vertex -33.4207 -164.484 -353.587
			vertex -33.2949 -165.051 -351.116
			vertex -31.235 -163.796 -351.853
		endloop
	endfacet 
	facet normal 0.644562 0.751578 0.0199234
		outer loop
			vertex -18.1794 -162.555 -352.571
			vertex -18.3424 -162.783 -347.85
			vertex -16.6542 -164.098 -346.672
		endloop
	endfacet 
	facet normal 0.561462 0.812063 0.0564711
		outer loop
			vertex -18.1794 -162.555 -352.571
			vertex -20.4112 -160.717 -353.982
			vertex -19.2861 -161.587 -351.185
		endloop
	endfacet 
	facet normal -0.0823787 0.923766 0.349464
		outer loop
			vertex -22.0623 -162.447 -348.939
			vertex -20.6871 -161.128 -351.235
			vertex -23.3146 -160.725 -353.189
		endloop
	endfacet 
	facet normal -0.560558 -0.653424 -0.487823
		outer loop
			vertex -19.6509 -181.426 -351.917
			vertex -22.1489 -180.468 -349.826
			vertex -21.1952 -180.102 -351.69
		endloop
	endfacet 
	facet normal 0.69862 -0.547177 0.42284
		outer loop
			vertex -17.9297 -180.898 -352.09
			vertex -18.6727 -180.26 -349.792
			vertex -19.3864 -181.57 -350.757
		endloop
	endfacet 
	facet normal -0.531735 -0.768266 -0.298867
		outer loop
			vertex -25.4379 -177.738 -350.21
			vertex -27.1741 -177.536 -347.39
			vertex -29.5183 -174.561 -351.835
		endloop
	endfacet 
	facet normal -0.441869 -0.612919 -0.639745
		outer loop
			vertex -25.4379 -177.738 -350.21
			vertex -23.4162 -175.993 -352.669
			vertex -22.8814 -178.704 -351.125
		endloop
	endfacet 
	facet normal -0.45095 -0.503886 -0.726067
		outer loop
			vertex -20.8193 -177.917 -353.029
			vertex -22.8814 -178.704 -351.125
			vertex -23.4162 -175.993 -352.669
		endloop
	endfacet 
	facet normal -0.316902 -0.687963 -0.630489
		outer loop
			vertex -23.4162 -175.993 -352.669
			vertex -25.4379 -177.738 -350.21
			vertex -26.4343 -174.259 -353.561
		endloop
	endfacet 
	facet normal -0.723303 -0.682251 -0.0116775
		outer loop
			vertex -29.5183 -174.561 -351.835
			vertex -29.0481 -175.549 -346.876
			vertex -31.4386 -172.894 -350.237
		endloop
	endfacet 
	facet normal 0.883783 -0.366388 0.281297
		outer loop
			vertex -15.5633 -171.757 -350.224
			vertex -15.9072 -173.86 -351.12
			vertex -15.0007 -171.541 -351.301
		endloop
	endfacet 
	facet normal 0.825991 0.550825 -0.0387757
		outer loop
			vertex -15.2963 -165.785 -343.007
			vertex -16.118 -165.134 -350.994
			vertex -16.6542 -164.098 -346.672
		endloop
	endfacet 
	facet normal -0.334246 0.884209 0.309291
		outer loop
			vertex -29.1511 -162.926 -352.047
			vertex -31.235 -163.796 -351.853
			vertex -29.3254 -164.051 -349.602
		endloop
	endfacet 
	facet normal -0.306193 0.884022 0.344823
		outer loop
			vertex -26.9739 -162.068 -352.372
			vertex -29.1511 -162.926 -352.047
			vertex -29.3254 -164.051 -349.602
		endloop
	endfacet 
	facet normal -0.272349 0.868051 0.409543
		outer loop
			vertex -25.6369 -163.257 -349.212
			vertex -26.9739 -162.068 -352.372
			vertex -29.3254 -164.051 -349.602
		endloop
	endfacet 
	facet normal 0.54632 0.819893 0.0808993
		outer loop
			vertex -18.1794 -162.555 -352.571
			vertex -19.2861 -161.587 -351.185
			vertex -18.3424 -162.783 -347.85
		endloop
	endfacet 
	facet normal 0.301702 0.916412 0.182211
		outer loop
			vertex -20.4112 -160.717 -353.982
			vertex -20.6871 -161.128 -351.235
			vertex -19.2861 -161.587 -351.185
		endloop
	endfacet 
	facet normal -0.444588 -0.876099 -0.0861899
		outer loop
			vertex -22.1489 -180.468 -349.826
			vertex -19.6509 -181.426 -351.917
			vertex -19.3864 -181.57 -350.757
		endloop
	endfacet 
	facet normal -0.313995 -0.938424 0.136837
		outer loop
			vertex -19.3864 -181.57 -350.757
			vertex -20.4608 -180.82 -349
			vertex -22.1489 -180.468 -349.826
		endloop
	endfacet 
	facet normal 0.545667 -0.640783 0.520522
		outer loop
			vertex -19.3864 -181.57 -350.757
			vertex -18.6727 -180.26 -349.792
			vertex -20.4608 -180.82 -349
		endloop
	endfacet 
	facet normal -0.564709 -0.592559 -0.550741
		outer loop
			vertex -21.1952 -180.102 -351.69
			vertex -22.1489 -180.468 -349.826
			vertex -22.8814 -178.704 -351.125
		endloop
	endfacet 
	facet normal -0.523972 -0.639565 -0.547878
		outer loop
			vertex -22.1489 -180.468 -349.826
			vertex -25.4379 -177.738 -350.21
			vertex -22.8814 -178.704 -351.125
		endloop
	endfacet 
	facet normal 0.787302 -0.41635 0.424579
		outer loop
			vertex -19.2177 -177.508 -347.157
			vertex -18.6727 -180.26 -349.792
			vertex -16.9975 -177.705 -351.28
		endloop
	endfacet 
	facet normal -0.677437 -0.727136 -0.0648313
		outer loop
			vertex -29.5183 -174.561 -351.835
			vertex -27.1741 -177.536 -347.39
			vertex -29.0481 -175.549 -346.876
		endloop
	endfacet 
	facet normal 0.843337 -0.348458 0.396123
		outer loop
			vertex -17.4019 -175.236 -348.871
			vertex -19.2177 -177.508 -347.157
			vertex -16.9975 -177.705 -351.28
		endloop
	endfacet 
	facet normal 0.8822 -0.31658 0.342547
		outer loop
			vertex -16.9975 -177.705 -351.28
			vertex -15.9072 -173.86 -351.12
			vertex -17.4019 -175.236 -348.871
		endloop
	endfacet 
	facet normal 0.860657 -0.401604 0.303815
		outer loop
			vertex -15.5633 -171.757 -350.224
			vertex -16.814 -172.615 -347.69
			vertex -15.9072 -173.86 -351.12
		endloop
	endfacet 
	facet normal 0.86189 -0.439482 0.234122
		outer loop
			vertex -15.4682 -170.447 -347.756
			vertex -15.5633 -171.757 -350.224
			vertex -15.0007 -171.541 -351.301
		endloop
	endfacet 
	facet normal -0.914 -0.312325 0.232592
		outer loop
			vertex -32.0787 -171.465 -348.231
			vertex -32.1503 -170.356 -346.638
			vertex -33.648 -169.207 -350.775
		endloop
	endfacet 
	facet normal 0.962203 -0.1994 0.0577346
		outer loop
			vertex -15.0007 -171.541 -351.301
			vertex -14.7607 -170.857 -352.985
			vertex -14.7431 -168.879 -347.121
		endloop
	endfacet 
	facet normal -0.926609 -0.115895 0.304333
		outer loop
			vertex -32.1503 -170.356 -346.638
			vertex -33.2591 -167.586 -349.226
			vertex -33.648 -169.207 -350.775
		endloop
	endfacet 
	facet normal 0.986839 0.0621883 -0.0775933
		outer loop
			vertex -14.7607 -170.857 -352.985
			vertex -15.2093 -168.009 -353.067
			vertex -14.7431 -168.879 -347.121
		endloop
	endfacet 
	facet normal -0.470682 0.812574 0.315742
		outer loop
			vertex -31.235 -163.796 -351.853
			vertex -33.2949 -165.051 -351.116
			vertex -31.9216 -165.456 -348.856
		endloop
	endfacet 
	facet normal -0.35364 0.850119 0.370486
		outer loop
			vertex -31.235 -163.796 -351.853
			vertex -31.9216 -165.456 -348.856
			vertex -29.3254 -164.051 -349.602
		endloop
	endfacet 
	facet normal -0.258021 0.842788 0.470604
		outer loop
			vertex -28.1895 -165.901 -346.022
			vertex -25.6369 -163.257 -349.212
			vertex -29.3254 -164.051 -349.602
		endloop
	endfacet 
	facet normal 0.590615 0.794315 0.0285111
		outer loop
			vertex -17.1292 -163.525 -343.427
			vertex -16.6542 -164.098 -346.672
			vertex -18.3424 -162.783 -347.85
		endloop
	endfacet 
	facet normal -0.0167856 0.917564 0.372788
		outer loop
			vertex -22.0623 -162.447 -348.939
			vertex -19.827 -162.083 -349.152
			vertex -20.6871 -161.128 -351.235
		endloop
	endfacet 
	facet normal 0.193046 0.919212 0.280752
		outer loop
			vertex -19.827 -162.083 -349.152
			vertex -19.2861 -161.587 -351.185
			vertex -20.6871 -161.128 -351.235
		endloop
	endfacet 
	facet normal -0.27987 -0.939953 0.156131
		outer loop
			vertex -20.4608 -180.82 -349
			vertex -22.9802 -179.611 -346.28
			vertex -22.1489 -180.468 -349.826
		endloop
	endfacet 
	facet normal 0.380874 -0.747765 0.532071
		outer loop
			vertex -20.5491 -179.547 -347.262
			vertex -22.9802 -179.611 -346.28
			vertex -20.4608 -180.82 -349
		endloop
	endfacet 
	facet normal -0.526607 -0.785856 -0.22423
		outer loop
			vertex -24.8986 -179.25 -347.531
			vertex -27.1741 -177.536 -347.39
			vertex -25.4379 -177.738 -350.21
		endloop
	endfacet 
	facet normal -0.481174 -0.808768 -0.269302
		outer loop
			vertex -22.1489 -180.468 -349.826
			vertex -24.8986 -179.25 -347.531
			vertex -25.4379 -177.738 -350.21
		endloop
	endfacet 
	facet normal 0.859716 -0.369212 0.339207
		outer loop
			vertex -17.4019 -175.236 -348.871
			vertex -15.9072 -173.86 -351.12
			vertex -16.814 -172.615 -347.69
		endloop
	endfacet 
	facet normal 0.838763 -0.474698 0.25664
		outer loop
			vertex -16.814 -172.615 -347.69
			vertex -15.5633 -171.757 -350.224
			vertex -15.4682 -170.447 -347.756
		endloop
	endfacet 
	facet normal 0.889929 -0.415659 0.155586
		outer loop
			vertex -15.0007 -171.541 -351.301
			vertex -14.7431 -168.879 -347.121
			vertex -15.4682 -170.447 -347.756
		endloop
	endfacet 
	facet normal 0.973756 0.148234 -0.0693559
		outer loop
			vertex -14.7431 -168.879 -347.121
			vertex -15.2093 -168.009 -353.067
			vertex -14.9215 -166.945 -346.639
		endloop
	endfacet 
	facet normal -0.812204 0.355911 0.421251
		outer loop
			vertex -33.2591 -167.586 -349.226
			vertex -31.9216 -165.456 -348.856
			vertex -33.2949 -165.051 -351.116
		endloop
	endfacet 
	facet normal 0.929529 0.332121 -0.0899854
		outer loop
			vertex -14.9215 -166.945 -346.639
			vertex -15.2093 -168.009 -353.067
			vertex -16.118 -165.134 -350.994
		endloop
	endfacet 
	facet normal 0.900441 0.418512 -0.0507261
		outer loop
			vertex -15.2963 -165.785 -343.007
			vertex -14.9215 -166.945 -346.639
			vertex -16.118 -165.134 -350.994
		endloop
	endfacet 
	facet normal -0.350359 0.804877 0.473335
		outer loop
			vertex -31.9216 -165.456 -348.856
			vertex -30.6043 -166.114 -346.826
			vertex -29.3254 -164.051 -349.602
		endloop
	endfacet 
	facet normal -0.305573 0.810908 0.493397
		outer loop
			vertex -30.6043 -166.114 -346.826
			vertex -28.1895 -165.901 -346.022
			vertex -29.3254 -164.051 -349.602
		endloop
	endfacet 
	facet normal 0.28169 0.912824 0.225525
		outer loop
			vertex -19.827 -162.083 -349.152
			vertex -18.3424 -162.783 -347.85
			vertex -19.2861 -161.587 -351.185
		endloop
	endfacet 
	facet normal 0.515078 -0.64691 0.543133
		outer loop
			vertex -20.4608 -180.82 -349
			vertex -18.6727 -180.26 -349.792
			vertex -20.5491 -179.547 -347.262
		endloop
	endfacet 
	facet normal -0.34556 -0.917909 0.0753075
		outer loop
			vertex -22.1489 -180.468 -349.826
			vertex -22.9802 -179.611 -346.28
			vertex -24.8986 -179.25 -347.531
		endloop
	endfacet 
	facet normal -0.825937 -0.544366 0.111658
		outer loop
			vertex -32.0787 -171.465 -348.231
			vertex -31.4386 -172.894 -350.237
			vertex -29.9966 -174.071 -344.92
		endloop
	endfacet 
	facet normal 0.880743 -0.433261 0.0834896
		outer loop
			vertex -15.4682 -170.447 -347.756
			vertex -14.7431 -168.879 -347.121
			vertex -15.1991 -169.404 -343.376
		endloop
	endfacet 
	facet normal -0.75235 0.406364 0.461808
		outer loop
			vertex -31.9216 -165.456 -348.856
			vertex -33.2591 -167.586 -349.226
			vertex -31.4234 -167.96 -345.387
		endloop
	endfacet 
	facet normal -0.255662 0.839481 0.478317
		outer loop
			vertex -28.1895 -165.901 -346.022
			vertex -24.3026 -165.255 -345.21
			vertex -25.6369 -163.257 -349.212
		endloop
	endfacet 
	facet normal -0.360077 -0.908114 0.109143
		outer loop
			vertex -24.8986 -179.25 -347.531
			vertex -22.9802 -179.611 -346.28
			vertex -25.8769 -178.34 -343.733
		endloop
	endfacet 
	facet normal 0.228285 -0.851245 0.417733
		outer loop
			vertex -20.5491 -179.547 -347.262
			vertex -22.073 -177.933 -343.434
			vertex -22.9802 -179.611 -346.28
		endloop
	endfacet 
	facet normal 0.663592 -0.520377 0.518636
		outer loop
			vertex -19.2177 -177.508 -347.157
			vertex -20.5491 -179.547 -347.262
			vertex -18.6727 -180.26 -349.792
		endloop
	endfacet 
	facet normal -0.693137 -0.714928 -0.013745
		outer loop
			vertex -27.5692 -177.133 -344.139
			vertex -29.0481 -175.549 -346.876
			vertex -27.1741 -177.536 -347.39
		endloop
	endfacet 
	facet normal 0.818935 -0.38501 0.420182
		outer loop
			vertex -18.6328 -174.785 -346.176
			vertex -19.2177 -177.508 -347.157
			vertex -17.4019 -175.236 -348.871
		endloop
	endfacet 
	facet normal -0.786103 -0.611648 0.056887
		outer loop
			vertex -29.9966 -174.071 -344.92
			vertex -31.4386 -172.894 -350.237
			vertex -29.0481 -175.549 -346.876
		endloop
	endfacet 
	facet normal 0.838031 -0.406941 0.353968
		outer loop
			vertex -18.6328 -174.785 -346.176
			vertex -17.4019 -175.236 -348.871
			vertex -16.814 -172.615 -347.69
		endloop
	endfacet 
	facet normal 0.814628 -0.500839 0.267456
		outer loop
			vertex -18.6328 -174.785 -346.176
			vertex -16.814 -172.615 -347.69
			vertex -18.608 -173.485 -343.676
		endloop
	endfacet 
	facet normal 0.811446 -0.545772 0.173074
		outer loop
			vertex -16.6034 -171.175 -342.941
			vertex -16.814 -172.615 -347.69
			vertex -15.4682 -170.447 -347.756
		endloop
	endfacet 
	facet normal -0.541707 0.645892 0.506382
		outer loop
			vertex -31.4234 -167.96 -345.387
			vertex -30.6043 -166.114 -346.826
			vertex -31.9216 -165.456 -348.856
		endloop
	endfacet 
	facet normal -0.255136 0.873061 0.407751
		outer loop
			vertex -24.3026 -165.255 -345.21
			vertex -20.5291 -163.523 -345.983
			vertex -22.0623 -162.447 -348.939
		endloop
	endfacet 
	facet normal -0.23292 0.859019 0.454141
		outer loop
			vertex -22.0623 -162.447 -348.939
			vertex -25.6369 -163.257 -349.212
			vertex -24.3026 -165.255 -345.21
		endloop
	endfacet 
	facet normal -0.140821 0.900324 0.378876
		outer loop
			vertex -22.0623 -162.447 -348.939
			vertex -20.5291 -163.523 -345.983
			vertex -19.827 -162.083 -349.152
		endloop
	endfacet 
	facet normal -0.0163467 0.937083 0.317461
		outer loop
			vertex -19.827 -162.083 -349.152
			vertex -20.5291 -163.523 -345.983
			vertex -18.3424 -162.783 -347.85
		endloop
	endfacet 
	facet normal 0.356261 -0.826255 0.416278
		outer loop
			vertex -22.9802 -179.611 -346.28
			vertex -22.073 -177.933 -343.434
			vertex -24.3711 -178.292 -342.105
		endloop
	endfacet 
	facet normal -0.513463 -0.845008 -0.00223518
		outer loop
			vertex -24.8986 -179.25 -347.531
			vertex -25.8769 -178.34 -343.733
			vertex -27.1741 -177.536 -347.39
		endloop
	endfacet 
	facet normal -0.194492 -0.934549 0.229171
		outer loop
			vertex -24.3711 -178.292 -342.105
			vertex -25.8769 -178.34 -343.733
			vertex -22.9802 -179.611 -346.28
		endloop
	endfacet 
	facet normal 0.625636 -0.585633 0.479061
		outer loop
			vertex -22.073 -177.933 -343.434
			vertex -20.5491 -179.547 -347.262
			vertex -19.2177 -177.508 -347.157
		endloop
	endfacet 
	facet normal -0.58127 -0.795173 0.0320287
		outer loop
			vertex -25.8769 -178.34 -343.733
			vertex -27.5692 -177.133 -344.139
			vertex -27.1741 -177.536 -347.39
		endloop
	endfacet 
	facet normal -0.905163 -0.348869 0.218128
		outer loop
			vertex -30.3742 -172.87 -343.007
			vertex -32.1503 -170.356 -346.638
			vertex -32.0787 -171.465 -348.231
		endloop
	endfacet 
	facet normal 0.792196 -0.574091 0.169046
		outer loop
			vertex -16.6034 -171.175 -342.941
			vertex -18.608 -173.485 -343.676
			vertex -16.814 -172.615 -347.69
		endloop
	endfacet 
	facet normal -0.922289 -0.194315 0.286977
		outer loop
			vertex -30.7797 -170.944 -342.776
			vertex -32.1503 -170.356 -346.638
			vertex -30.3742 -172.87 -343.007
		endloop
	endfacet 
	facet normal -0.92442 -0.0263738 0.346173
		outer loop
			vertex -33.2591 -167.586 -349.226
			vertex -32.1503 -170.356 -346.638
			vertex -30.7797 -170.944 -342.776
		endloop
	endfacet 
	facet normal -0.849352 0.209954 0.42507
		outer loop
			vertex -31.4234 -167.96 -345.387
			vertex -33.2591 -167.586 -349.226
			vertex -30.7797 -170.944 -342.776
		endloop
	endfacet 
	facet normal -0.501079 0.655868 0.530588
		outer loop
			vertex -29.9368 -167.84 -344.082
			vertex -30.6043 -166.114 -346.826
			vertex -31.4234 -167.96 -345.387
		endloop
	endfacet 
	facet normal -0.350468 0.767602 0.5306
		outer loop
			vertex -28.1895 -165.901 -346.022
			vertex -30.6043 -166.114 -346.826
			vertex -29.9368 -167.84 -344.082
		endloop
	endfacet 
	facet normal 0.68922 -0.575996 0.388323
		outer loop
			vertex -22.073 -177.933 -343.434
			vertex -19.2177 -177.508 -347.157
			vertex -20.3271 -175.822 -343.279
		endloop
	endfacet 
	facet normal -0.742317 -0.665321 0.0446788
		outer loop
			vertex -29.0481 -175.549 -346.876
			vertex -27.5692 -177.133 -344.139
			vertex -28.449 -175.97 -342.878
		endloop
	endfacet 
	facet normal 0.79513 -0.463792 0.374738
		outer loop
			vertex -20.3271 -175.822 -343.279
			vertex -19.2177 -177.508 -347.157
			vertex -18.6328 -174.785 -346.176
		endloop
	endfacet 
	facet normal -0.789417 -0.606928 0.062157
		outer loop
			vertex -29.9966 -174.071 -344.92
			vertex -29.0481 -175.549 -346.876
			vertex -28.449 -175.97 -342.878
		endloop
	endfacet 
	facet normal -0.870369 -0.456574 0.160313
		outer loop
			vertex -32.0787 -171.465 -348.231
			vertex -29.9966 -174.071 -344.92
			vertex -30.3742 -172.87 -343.007
		endloop
	endfacet 
	facet normal 0.811459 -0.570936 0.0907883
		outer loop
			vertex -15.4682 -170.447 -347.756
			vertex -15.1991 -169.404 -343.376
			vertex -16.6034 -171.175 -342.941
		endloop
	endfacet 
	facet normal -0.360139 0.780914 0.501542
		outer loop
			vertex -28.1895 -165.901 -346.022
			vertex -29.9368 -167.84 -344.082
			vertex -27.4625 -168.373 -341.597
		endloop
	endfacet 
	facet normal -0.33173 0.863613 0.367811
		outer loop
			vertex -24.3026 -165.255 -345.21
			vertex -22.2371 -165.199 -343.96
			vertex -20.5291 -163.523 -345.983
		endloop
	endfacet 
	facet normal 0.318054 0.923068 0.0706103
		outer loop
			vertex -18.3424 -162.783 -347.85
			vertex -18.5538 -163.152 -342.159
			vertex -17.1292 -163.525 -343.427
		endloop
	endfacet 
	facet normal -0.11961 0.953861 0.194798
		outer loop
			vertex -18.5538 -163.152 -342.159
			vertex -18.3424 -162.783 -347.85
			vertex -20.5291 -163.523 -345.983
		endloop
	endfacet 
	facet normal -0.440287 0.871465 0.146106
		outer loop
			vertex -20.7992 -164.622 -342.41
			vertex -18.5538 -163.152 -342.159
			vertex -20.5291 -163.523 -345.983
		endloop
	endfacet 
	facet normal 0.792849 -0.533328 0.269959
		outer loop
			vertex -18.608 -173.485 -343.676
			vertex -20.3271 -175.822 -343.279
			vertex -18.6328 -174.785 -346.176
		endloop
	endfacet 
	facet normal 0.753738 -0.647946 0.0844255
		outer loop
			vertex -18.2879 -172.839 -340.687
			vertex -18.608 -173.485 -343.676
			vertex -16.6034 -171.175 -342.941
		endloop
	endfacet 
	facet normal -0.803507 0.295703 0.461438
		outer loop
			vertex -29.7193 -170.052 -341.255
			vertex -31.4234 -167.96 -345.387
			vertex -30.7797 -170.944 -342.776
		endloop
	endfacet 
	facet normal -0.312885 0.820913 0.472053
		outer loop
			vertex -28.1895 -165.901 -346.022
			vertex -27.4625 -168.373 -341.597
			vertex -24.3026 -165.255 -345.21
		endloop
	endfacet 
	facet normal 0.79167 0.601146 -0.0121588
		outer loop
			vertex -15.977 -164.667 -340.137
			vertex -15.2963 -165.785 -343.007
			vertex -16.6542 -164.098 -346.672
		endloop
	endfacet 
	facet normal 0.678169 0.722698 0.00244486
		outer loop
			vertex -16.6542 -164.098 -346.672
			vertex -17.1292 -163.525 -343.427
			vertex -15.977 -164.667 -340.137
		endloop
	endfacet 
	facet normal -0.504203 0.855438 0.0377689
		outer loop
			vertex -19.3666 -163.448 -341.112
			vertex -18.5538 -163.152 -342.159
			vertex -20.7992 -164.622 -342.41
		endloop
	endfacet 
	facet normal -0.183809 -0.921268 0.275281
		outer loop
			vertex -25.9391 -177.052 -338.586
			vertex -25.8769 -178.34 -343.733
			vertex -24.3711 -178.292 -342.105
		endloop
	endfacet 
	facet normal -0.579729 -0.792753 0.118444
		outer loop
			vertex -25.8769 -178.34 -343.733
			vertex -27.335 -176.924 -340.503
			vertex -27.5692 -177.133 -344.139
		endloop
	endfacet 
	facet normal -0.700788 -0.699809 0.0966009
		outer loop
			vertex -27.335 -176.924 -340.503
			vertex -28.449 -175.97 -342.878
			vertex -27.5692 -177.133 -344.139
		endloop
	endfacet 
	facet normal -0.379843 0.847514 0.355346
		outer loop
			vertex -24.3026 -165.255 -345.21
			vertex -23.9576 -166.857 -341.603
			vertex -22.2371 -165.199 -343.96
		endloop
	endfacet 
	facet normal -0.374761 0.830945 0.39666
		outer loop
			vertex -27.4625 -168.373 -341.597
			vertex -23.9576 -166.857 -341.603
			vertex -24.3026 -165.255 -345.21
		endloop
	endfacet 
	facet normal -0.481846 0.83529 0.234758
		outer loop
			vertex -23.9576 -166.857 -341.603
			vertex -20.7992 -164.622 -342.41
			vertex -22.2371 -165.199 -343.96
		endloop
	endfacet 
	facet normal -0.452585 0.846979 0.240049
		outer loop
			vertex -22.2371 -165.199 -343.96
			vertex -20.7992 -164.622 -342.41
			vertex -20.5291 -163.523 -345.983
		endloop
	endfacet 
	facet normal -0.603866 0.791549 0.0327836
		outer loop
			vertex -20.7992 -164.622 -342.41
			vertex -20.7556 -164.734 -339.101
			vertex -19.3666 -163.448 -341.112
		endloop
	endfacet 
	facet normal -0.414502 -0.856811 0.219914
		outer loop
			vertex -25.9391 -177.052 -338.586
			vertex -27.335 -176.924 -340.503
			vertex -25.8769 -178.34 -343.733
		endloop
	endfacet 
	facet normal 0.300001 -0.853635 0.378509
		outer loop
			vertex -22.073 -177.933 -343.434
			vertex -23.7496 -176.833 -338.916
			vertex -24.3711 -178.292 -342.105
		endloop
	endfacet 
	facet normal 0.638779 -0.687546 0.316288
		outer loop
			vertex -21.5674 -175.899 -339.562
			vertex -22.073 -177.933 -343.434
			vertex -20.3271 -175.822 -343.279
		endloop
	endfacet 
	facet normal -0.815254 -0.564992 0.113828
		outer loop
			vertex -29.9966 -174.071 -344.92
			vertex -28.449 -175.97 -342.878
			vertex -28.6683 -175.254 -340.311
		endloop
	endfacet 
	facet normal 0.810949 -0.581076 0.0367891
		outer loop
			vertex -16.6034 -171.175 -342.941
			vertex -15.1991 -169.404 -343.376
			vertex -15.3882 -169.724 -338.237
		endloop
	endfacet 
	facet normal 0.903989 -0.411049 0.043003
		outer loop
			vertex -15.1991 -169.404 -343.376
			vertex -14.7431 -168.879 -347.121
			vertex -14.7136 -168.543 -340.152
		endloop
	endfacet 
	facet normal -0.605618 0.575834 0.522147
		outer loop
			vertex -29.9368 -167.84 -344.082
			vertex -31.4234 -167.96 -345.387
			vertex -29.7193 -170.052 -341.255
		endloop
	endfacet 
	facet normal -0.465999 0.719999 0.502048
		outer loop
			vertex -27.4625 -168.373 -341.597
			vertex -29.9368 -167.84 -344.082
			vertex -29.7193 -170.052 -341.255
		endloop
	endfacet 
	facet normal 0.981984 0.123215 -0.0216713
		outer loop
			vertex -14.7431 -168.879 -347.121
			vertex -14.9215 -166.945 -346.639
			vertex -14.6396 -167.364 -340.4
		endloop
	endfacet 
	facet normal 0.941703 0.301459 -0.028006
		outer loop
			vertex -14.6396 -167.364 -340.4
			vertex -14.9215 -166.945 -346.639
			vertex -15.2963 -165.785 -343.007
		endloop
	endfacet 
	facet normal -0.549854 0.810775 0.159775
		outer loop
			vertex -22.7797 -166.642 -339.188
			vertex -20.7992 -164.622 -342.41
			vertex -23.9576 -166.857 -341.603
		endloop
	endfacet 
	facet normal -0.748633 -0.635391 0.134026
		outer loop
			vertex -28.6683 -175.254 -340.311
			vertex -28.449 -175.97 -342.878
			vertex -27.335 -176.924 -340.503
		endloop
	endfacet 
	facet normal 0.6881 -0.676591 0.220061
		outer loop
			vertex -20.3271 -175.822 -343.279
			vertex -19.8159 -174.426 -340.394
			vertex -21.5674 -175.899 -339.562
		endloop
	endfacet 
	facet normal 0.752123 -0.625308 0.18316
		outer loop
			vertex -19.8159 -174.426 -340.394
			vertex -20.3271 -175.822 -343.279
			vertex -18.608 -173.485 -343.676
		endloop
	endfacet 
	facet normal -0.856373 -0.48192 0.157213
		outer loop
			vertex -30.3742 -172.87 -343.007
			vertex -29.9966 -174.071 -344.92
			vertex -28.6683 -175.254 -340.311
		endloop
	endfacet 
	facet normal 0.735444 -0.666673 0.0960367
		outer loop
			vertex -18.608 -173.485 -343.676
			vertex -18.2879 -172.839 -340.687
			vertex -19.8159 -174.426 -340.394
		endloop
	endfacet 
	facet normal -0.901648 -0.036471 0.390393
		outer loop
			vertex -28.8892 -173.919 -338.649
			vertex -28.8142 -172.286 -338.032
			vertex -30.7797 -170.944 -342.776
		endloop
	endfacet 
	facet normal -0.845552 0.212405 0.439237
		outer loop
			vertex -30.7797 -170.944 -342.776
			vertex -28.8142 -172.286 -338.032
			vertex -29.7193 -170.052 -341.255
		endloop
	endfacet 
	facet normal 0.698143 -0.713762 0.0476395
		outer loop
			vertex -18.2879 -172.839 -340.687
			vertex -17.2475 -171.8 -337.465
			vertex -18.8077 -173.394 -338.736
		endloop
	endfacet 
	facet normal 0.72518 -0.684739 0.0524229
		outer loop
			vertex -17.2475 -171.8 -337.465
			vertex -18.2879 -172.839 -340.687
			vertex -16.6034 -171.175 -342.941
		endloop
	endfacet 
	facet normal 0.761001 -0.64031 0.0485065
		outer loop
			vertex -16.6034 -171.175 -342.941
			vertex -15.3882 -169.724 -338.237
			vertex -17.2475 -171.8 -337.465
		endloop
	endfacet 
	facet normal 0.97192 -0.122534 0.0153867
		outer loop
			vertex -14.7431 -168.879 -347.121
			vertex -14.6396 -167.364 -340.4
			vertex -14.7136 -168.543 -340.152
		endloop
	endfacet 
	facet normal -0.663931 0.744711 0.0453785
		outer loop
			vertex -22.7797 -166.642 -339.188
			vertex -22.2235 -166.214 -337.262
			vertex -20.7556 -164.734 -339.101
		endloop
	endfacet 
	facet normal -0.629196 0.771429 0.0721238
		outer loop
			vertex -20.7992 -164.622 -342.41
			vertex -22.7797 -166.642 -339.188
			vertex -20.7556 -164.734 -339.101
		endloop
	endfacet 
	facet normal 0.852197 0.507159 0.0141258
		outer loop
			vertex -15.0059 -166.243 -336.473
			vertex -15.2963 -165.785 -343.007
			vertex -15.977 -164.667 -340.137
		endloop
	endfacet 
	facet normal -0.569638 0.814021 0.0248993
		outer loop
			vertex -19.3666 -163.448 -341.112
			vertex -20.7556 -164.734 -339.101
			vertex -19.5495 -163.644 -337.783
		endloop
	endfacet 
	facet normal -0.408871 0.896543 0.030976
		outer loop
			vertex -19.3666 -163.448 -341.112
			vertex -19.5495 -163.644 -337.783
			vertex -18.5538 -163.152 -342.159
		endloop
	endfacet 
	facet normal 0.0991781 -0.906747 0.374317
		outer loop
			vertex -24.3711 -178.292 -342.105
			vertex -23.7496 -176.833 -338.916
			vertex -25.9391 -177.052 -338.586
		endloop
	endfacet 
	facet normal 0.466254 -0.795142 0.360799
		outer loop
			vertex -22.073 -177.933 -343.434
			vertex -21.5674 -175.899 -339.562
			vertex -23.7496 -176.833 -338.916
		endloop
	endfacet 
	facet normal -0.719135 -0.632932 0.235244
		outer loop
			vertex -27.335 -176.924 -340.503
			vertex -27.4896 -175.787 -337.222
			vertex -28.6683 -175.254 -340.311
		endloop
	endfacet 
	facet normal 0.625592 -0.749853 0.190525
		outer loop
			vertex -19.8159 -174.426 -340.394
			vertex -19.5851 -173.831 -337.16
			vertex -21.5674 -175.899 -339.562
		endloop
	endfacet 
	facet normal -0.88021 -0.389184 0.235801
		outer loop
			vertex -30.3742 -172.87 -343.007
			vertex -28.6683 -175.254 -340.311
			vertex -28.8892 -173.919 -338.649
		endloop
	endfacet 
	facet normal 0.659605 -0.737161 0.116394
		outer loop
			vertex -18.8077 -173.394 -338.736
			vertex -19.5851 -173.831 -337.16
			vertex -19.8159 -174.426 -340.394
		endloop
	endfacet 
	facet normal -0.911332 -0.209284 0.30775
		outer loop
			vertex -30.3742 -172.87 -343.007
			vertex -28.8892 -173.919 -338.649
			vertex -30.7797 -170.944 -342.776
		endloop
	endfacet 
	facet normal 0.705434 -0.705264 0.058808
		outer loop
			vertex -18.2879 -172.839 -340.687
			vertex -18.8077 -173.394 -338.736
			vertex -19.8159 -174.426 -340.394
		endloop
	endfacet 
	facet normal -0.579176 0.662355 0.444969
		outer loop
			vertex -27.7583 -170.62 -337.66
			vertex -27.4625 -168.373 -341.597
			vertex -29.7193 -170.052 -341.255
		endloop
	endfacet 
	facet normal -0.611604 0.779931 0.0616556
		outer loop
			vertex -20.7556 -164.734 -339.101
			vertex -22.0538 -166.066 -334.527
			vertex -19.5495 -163.644 -337.783
		endloop
	endfacet 
	facet normal -0.514143 -0.776812 0.28783
		outer loop
			vertex -27.4896 -175.787 -337.222
			vertex -27.335 -176.924 -340.503
			vertex -25.9391 -177.052 -338.586
		endloop
	endfacet 
	facet normal -0.751758 0.427779 0.449036
		outer loop
			vertex -27.7583 -170.62 -337.66
			vertex -29.7193 -170.052 -341.255
			vertex -28.8142 -172.286 -338.032
		endloop
	endfacet 
	facet normal -0.55052 0.737969 0.34898
		outer loop
			vertex -27.4625 -168.373 -341.597
			vertex -27.7583 -170.62 -337.66
			vertex -25.5248 -168.774 -338.039
		endloop
	endfacet 
	facet normal 0.870346 -0.478199 0.0204473
		outer loop
			vertex -15.3882 -169.724 -338.237
			vertex -15.1991 -169.404 -343.376
			vertex -14.7136 -168.543 -340.152
		endloop
	endfacet 
	facet normal -0.468446 0.816799 0.315728
		outer loop
			vertex -27.4625 -168.373 -341.597
			vertex -25.5248 -168.774 -338.039
			vertex -23.9576 -166.857 -341.603
		endloop
	endfacet 
	facet normal -0.657094 0.750008 0.0602795
		outer loop
			vertex -22.7797 -166.642 -339.188
			vertex -23.7406 -167.632 -336.349
			vertex -22.2235 -166.214 -337.262
		endloop
	endfacet 
	facet normal -0.680567 0.730742 0.0427946
		outer loop
			vertex -22.2235 -166.214 -337.262
			vertex -22.0538 -166.066 -334.527
			vertex -20.7556 -164.734 -339.101
		endloop
	endfacet 
	facet normal -0.830424 -0.448088 0.286702
		outer loop
			vertex -28.6683 -175.254 -340.311
			vertex -27.4896 -175.787 -337.222
			vertex -28.8892 -173.919 -338.649
		endloop
	endfacet 
	facet normal 0.396351 -0.815322 0.389435
		outer loop
			vertex -21.5674 -175.899 -339.562
			vertex -21.838 -174.379 -335.708
			vertex -23.7496 -176.833 -338.916
		endloop
	endfacet 
	facet normal 0.490506 -0.790258 0.319544
		outer loop
			vertex -21.5674 -175.899 -339.562
			vertex -19.5851 -173.831 -337.16
			vertex -21.838 -174.379 -335.708
		endloop
	endfacet 
	facet normal -0.839694 -0.111998 0.476804
		outer loop
			vertex -28.8892 -173.919 -338.649
			vertex -27.1777 -173.617 -335.303
			vertex -28.8142 -172.286 -338.032
		endloop
	endfacet 
	facet normal -0.745106 0.49955 0.399313
		outer loop
			vertex -27.1019 -171.662 -335.223
			vertex -25.2348 -169.293 -334.57
			vertex -27.7583 -170.62 -337.66
		endloop
	endfacet 
	facet normal -0.789994 0.347816 0.455762
		outer loop
			vertex -27.1019 -171.662 -335.223
			vertex -27.7583 -170.62 -337.66
			vertex -28.8142 -172.286 -338.032
		endloop
	endfacet 
	facet normal -0.541536 0.808853 0.19943
		outer loop
			vertex -25.5248 -168.774 -338.039
			vertex -22.7797 -166.642 -339.188
			vertex -23.9576 -166.857 -341.603
		endloop
	endfacet 
	facet normal -0.614041 0.774805 0.12668
		outer loop
			vertex -23.7406 -167.632 -336.349
			vertex -22.7797 -166.642 -339.188
			vertex -25.5248 -168.774 -338.039
		endloop
	endfacet 
	facet normal 0.972779 -0.107055 0.0390677
		outer loop
			vertex -14.7136 -168.543 -340.152
			vertex -14.6396 -167.364 -340.4
			vertex -14.7793 -168.187 -334.85
		endloop
	endfacet 
	facet normal 0.965482 0.154135 0.0564124
		outer loop
			vertex -14.7793 -168.187 -334.85
			vertex -14.6396 -167.364 -340.4
			vertex -15.0059 -166.243 -336.473
		endloop
	endfacet 
	facet normal 0.927781 0.339785 0.0102289
		outer loop
			vertex -15.0059 -166.243 -336.473
			vertex -14.6396 -167.364 -340.4
			vertex -15.2963 -165.785 -343.007
		endloop
	endfacet 
	facet normal 0.341632 0.90547 0.0578258
		outer loop
			vertex -17.1292 -163.525 -343.427
			vertex -18.5538 -163.152 -342.159
			vertex -17.0855 -163.761 -338.166
		endloop
	endfacet 
	facet normal 0.591221 0.788185 0.0433208
		outer loop
			vertex -17.0855 -163.761 -338.166
			vertex -15.977 -164.667 -340.137
			vertex -17.1292 -163.525 -343.427
		endloop
	endfacet 
	facet normal -0.221457 0.949631 0.0954335
		outer loop
			vertex -18.5538 -163.152 -342.159
			vertex -19.5495 -163.644 -337.783
			vertex -18.3896 -163.462 -336.446
		endloop
	endfacet 
	facet normal -0.230976 -0.843254 0.418719
		outer loop
			vertex -27.4896 -175.787 -337.222
			vertex -25.9391 -177.052 -338.586
			vertex -26.4025 -175.313 -335.526
		endloop
	endfacet 
	facet normal 0.14173 -0.850715 0.476715
		outer loop
			vertex -25.9391 -177.052 -338.586
			vertex -23.7496 -176.833 -338.916
			vertex -24.7369 -175.275 -335.782
		endloop
	endfacet 
	facet normal -0.00760817 -0.838402 0.518702
		outer loop
			vertex -25.9391 -177.052 -338.586
			vertex -24.7369 -175.275 -335.782
			vertex -26.4025 -175.313 -335.526
		endloop
	endfacet 
	facet normal 0.251978 -0.820786 0.499834
		outer loop
			vertex -24.7369 -175.275 -335.782
			vertex -23.7496 -176.833 -338.916
			vertex -21.838 -174.379 -335.708
		endloop
	endfacet 
	facet normal -0.81778 -0.312241 0.448898
		outer loop
			vertex -27.4896 -175.787 -337.222
			vertex -27.1777 -173.617 -335.303
			vertex -28.8892 -173.919 -338.649
		endloop
	endfacet 
	facet normal 0.180386 -0.773141 0.593977
		outer loop
			vertex -23.3166 -173.383 -334.097
			vertex -24.7369 -175.275 -335.782
			vertex -21.838 -174.379 -335.708
		endloop
	endfacet 
	facet normal -0.806845 0.0712432 0.539484
		outer loop
			vertex -27.1777 -173.617 -335.303
			vertex -27.1019 -171.662 -335.223
			vertex -28.8142 -172.286 -338.032
		endloop
	endfacet 
	facet normal 0.652314 -0.745659 0.105226
		outer loop
			vertex -18.8077 -173.394 -338.736
			vertex -17.2475 -171.8 -337.465
			vertex -19.5851 -173.831 -337.16
		endloop
	endfacet 
	facet normal -0.652853 0.689851 0.285788
		outer loop
			vertex -27.7583 -170.62 -337.66
			vertex -25.2348 -169.293 -334.57
			vertex -25.5248 -168.774 -338.039
		endloop
	endfacet 
	facet normal 0.910855 -0.383939 0.044383
		outer loop
			vertex -14.7136 -168.543 -340.152
			vertex -14.7793 -168.187 -334.85
			vertex -15.3882 -169.724 -338.237
		endloop
	endfacet 
	facet normal 0.639954 0.744233 0.0923448
		outer loop
			vertex -15.977 -164.667 -340.137
			vertex -17.0855 -163.761 -338.166
			vertex -15.9354 -165.028 -335.126
		endloop
	endfacet 
	facet normal 0.787429 0.58476 0.0777535
		outer loop
			vertex -15.9354 -165.028 -335.126
			vertex -15.0059 -166.243 -336.473
			vertex -15.977 -164.667 -340.137
		endloop
	endfacet 
	facet normal -0.529817 0.823788 0.138986
		outer loop
			vertex -22.0538 -166.066 -334.527
			vertex -19.7784 -164.671 -332.885
			vertex -19.5495 -163.644 -337.783
		endloop
	endfacet 
	facet normal 0.218241 0.947662 0.11119
		outer loop
			vertex -18.5538 -163.152 -342.159
			vertex -18.3896 -163.462 -336.446
			vertex -17.0855 -163.761 -338.166
		endloop
	endfacet 
	facet normal -0.703 -0.37761 0.565306
		outer loop
			vertex -27.4896 -175.787 -337.222
			vertex -26.4025 -175.313 -335.526
			vertex -27.1777 -173.617 -335.303
		endloop
	endfacet 
	facet normal 0.0372055 -0.741851 0.653443
		outer loop
			vertex -24.7369 -175.275 -335.782
			vertex -25.1571 -173.349 -333.961
			vertex -26.4025 -175.313 -335.526
		endloop
	endfacet 
	facet normal 0.075968 -0.709092 0.691386
		outer loop
			vertex -25.1571 -173.349 -333.961
			vertex -24.7369 -175.275 -335.782
			vertex -23.3166 -173.383 -334.097
		endloop
	endfacet 
	facet normal 0.16753 -0.768044 0.603051
		outer loop
			vertex -23.3166 -173.383 -334.097
			vertex -21.838 -174.379 -335.708
			vertex -20.9983 -172.262 -333.108
		endloop
	endfacet 
	facet normal 0.281571 -0.799148 0.504657
		outer loop
			vertex -20.9983 -172.262 -333.108
			vertex -21.838 -174.379 -335.708
			vertex -18.0464 -171.485 -333.136
		endloop
	endfacet 
	facet normal 0.439912 -0.805645 0.359815
		outer loop
			vertex -19.5851 -173.831 -337.16
			vertex -18.0464 -171.485 -333.136
			vertex -21.838 -174.379 -335.708
		endloop
	endfacet 
	facet normal -0.772634 0.362537 0.471641
		outer loop
			vertex -27.1019 -171.662 -335.223
			vertex -24.5262 -170.651 -332.479
			vertex -25.2348 -169.293 -334.57
		endloop
	endfacet 
	facet normal 0.76116 -0.63599 0.0738031
		outer loop
			vertex -15.6866 -170.044 -333.984
			vertex -17.2475 -171.8 -337.465
			vertex -15.3882 -169.724 -338.237
		endloop
	endfacet 
	facet normal -0.643282 0.734633 0.179786
		outer loop
			vertex -25.2348 -169.293 -334.57
			vertex -23.7406 -167.632 -336.349
			vertex -25.5248 -168.774 -338.039
		endloop
	endfacet 
	facet normal -0.673729 0.736039 0.0576956
		outer loop
			vertex -22.0538 -166.066 -334.527
			vertex -22.2235 -166.214 -337.262
			vertex -23.7406 -167.632 -336.349
		endloop
	endfacet 
	facet normal 0.831113 0.49076 0.186844
		outer loop
			vertex -15.9354 -165.028 -335.126
			vertex -15.4974 -166.66 -332.258
			vertex -15.0059 -166.243 -336.473
		endloop
	endfacet 
	facet normal -0.303082 0.915688 0.200701
		outer loop
			vertex -19.5495 -163.644 -337.783
			vertex -19.7784 -164.671 -332.885
			vertex -18.3896 -163.462 -336.446
		endloop
	endfacet 
	facet normal -0.588335 -0.317011 0.723369
		outer loop
			vertex -27.1777 -173.617 -335.303
			vertex -26.4025 -175.313 -335.526
			vertex -25.1571 -173.349 -333.961
		endloop
	endfacet 
	facet normal -0.55313 -0.285438 0.762868
		outer loop
			vertex -24.5262 -170.651 -332.479
			vertex -27.1777 -173.617 -335.303
			vertex -25.1571 -173.349 -333.961
		endloop
	endfacet 
	facet normal -0.747912 0.0267574 0.625269
		outer loop
			vertex -27.1777 -173.617 -335.303
			vertex -24.5262 -170.651 -332.479
			vertex -27.1019 -171.662 -335.223
		endloop
	endfacet 
	facet normal 0.578911 -0.771369 0.211542
		outer loop
			vertex -17.2475 -171.8 -337.465
			vertex -18.0464 -171.485 -333.136
			vertex -19.5851 -173.831 -337.16
		endloop
	endfacet 
	facet normal 0.857275 -0.459654 0.0832576
		outer loop
			vertex -14.7793 -168.187 -334.85
			vertex -15.6866 -170.044 -333.984
			vertex -15.3882 -169.724 -338.237
		endloop
	endfacet 
	facet normal -0.681727 0.71249 0.13603
		outer loop
			vertex -23.7406 -167.632 -336.349
			vertex -25.2348 -169.293 -334.57
			vertex -22.0538 -166.066 -334.527
		endloop
	endfacet 
	facet normal 0.945451 0.209341 0.157484
		outer loop
			vertex -15.0059 -166.243 -336.473
			vertex -15.4974 -166.66 -332.258
			vertex -14.7793 -168.187 -334.85
		endloop
	endfacet 
	facet normal 0.564515 0.740352 0.307779
		outer loop
			vertex -17.4365 -164.973 -332.731
			vertex -15.4974 -166.66 -332.258
			vertex -15.9354 -165.028 -335.126
		endloop
	endfacet 
	facet normal 0.48601 0.825013 0.225467
		outer loop
			vertex -17.4365 -164.973 -332.731
			vertex -15.9354 -165.028 -335.126
			vertex -17.0855 -163.761 -338.166
		endloop
	endfacet 
	facet normal 0.373741 0.882925 0.240378
		outer loop
			vertex -17.4365 -164.973 -332.731
			vertex -17.0855 -163.761 -338.166
			vertex -18.3896 -163.462 -336.446
		endloop
	endfacet 
	facet normal 0.0323898 -0.708665 0.694447
		outer loop
			vertex -23.3166 -173.383 -334.097
			vertex -20.9983 -172.262 -333.108
			vertex -22.6396 -171.535 -332.379
		endloop
	endfacet 
	facet normal -0.00712962 -0.661667 0.743668
		outer loop
			vertex -23.3166 -173.383 -334.097
			vertex -22.6396 -171.535 -332.379
			vertex -25.1571 -173.349 -333.961
		endloop
	endfacet 
	facet normal 0.194271 -0.767061 0.572362
		outer loop
			vertex -18.0464 -171.485 -333.136
			vertex -19.5842 -170.453 -331.057
			vertex -20.9983 -172.262 -333.108
		endloop
	endfacet 
	facet normal 0.627803 -0.720838 0.200946
		outer loop
			vertex -17.2475 -171.8 -337.465
			vertex -15.6866 -170.044 -333.984
			vertex -18.0464 -171.485 -333.136
		endloop
	endfacet 
	facet normal -0.774677 0.377852 0.48371
		outer loop
			vertex -24.5262 -170.651 -332.479
			vertex -23.255 -167.936 -331.599
			vertex -25.2348 -169.293 -334.57
		endloop
	endfacet 
	facet normal -0.725432 0.623369 0.249343
		outer loop
			vertex -23.255 -167.936 -331.599
			vertex -22.0538 -166.066 -334.527
			vertex -25.2348 -169.293 -334.57
		endloop
	endfacet 
	facet normal 0.110163 0.912113 0.328993
		outer loop
			vertex -18.3896 -163.462 -336.446
			vertex -19.7784 -164.671 -332.885
			vertex -17.4365 -164.973 -332.731
		endloop
	endfacet 
	facet normal -0.214904 -0.537118 0.80271
		outer loop
			vertex -24.5262 -170.651 -332.479
			vertex -25.1571 -173.349 -333.961
			vertex -22.6396 -171.535 -332.379
		endloop
	endfacet 
	facet normal 0.017394 -0.709713 0.694772
		outer loop
			vertex -19.5842 -170.453 -331.057
			vertex -22.6396 -171.535 -332.379
			vertex -20.9983 -172.262 -333.108
		endloop
	endfacet 
	facet normal 0.226217 -0.766883 0.571252
		outer loop
			vertex -17.2358 -169.382 -330.213
			vertex -19.5842 -170.453 -331.057
			vertex -18.0464 -171.485 -333.136
		endloop
	endfacet 
	facet normal 0.276551 0.797762 0.508996
		outer loop
			vertex -16.9296 -167.377 -330.036
			vertex -17.4365 -164.973 -332.731
			vertex -19.3725 -166.403 -329.961
		endloop
	endfacet 
	facet normal 0.82453 0.0864925 0.51484
		outer loop
			vertex -16.9296 -167.377 -330.036
			vertex -15.6957 -168.887 -331.293
			vertex -15.4974 -166.66 -332.258
		endloop
	endfacet 
	facet normal 0.950139 0.0148327 0.244896
		outer loop
			vertex -15.4974 -166.66 -332.258
			vertex -15.6957 -168.887 -331.293
			vertex -14.7793 -168.187 -334.85
		endloop
	endfacet 
	facet normal 0.468917 0.743513 0.442542
		outer loop
			vertex -15.4974 -166.66 -332.258
			vertex -17.4365 -164.973 -332.731
			vertex -16.9296 -167.377 -330.036
		endloop
	endfacet 
	facet normal -0.0893092 -0.630796 0.757875
		outer loop
			vertex -22.6396 -171.535 -332.379
			vertex -19.5842 -170.453 -331.057
			vertex -21.4809 -169.724 -330.58
		endloop
	endfacet 
	facet normal -0.225549 -0.531927 0.803597
		outer loop
			vertex -24.5262 -170.651 -332.479
			vertex -22.6396 -171.535 -332.379
			vertex -21.4809 -169.724 -330.58
		endloop
	endfacet 
	facet normal 0.494409 -0.75464 0.392964
		outer loop
			vertex -15.6957 -168.887 -331.293
			vertex -17.2358 -169.382 -330.213
			vertex -18.0464 -171.485 -333.136
		endloop
	endfacet 
	facet normal 0.630429 -0.696455 0.280799
		outer loop
			vertex -18.0464 -171.485 -333.136
			vertex -15.6866 -170.044 -333.984
			vertex -15.6957 -168.887 -331.293
		endloop
	endfacet 
	facet normal 0.852902 -0.421219 0.184228
		outer loop
			vertex -15.6957 -168.887 -331.293
			vertex -15.6866 -170.044 -333.984
			vertex -14.7793 -168.187 -334.85
		endloop
	endfacet 
	facet normal -0.703659 0.63914 0.266987
		outer loop
			vertex -22.0538 -166.066 -334.527
			vertex -23.255 -167.936 -331.599
			vertex -21.4239 -166.325 -330.717
		endloop
	endfacet 
	facet normal -0.538101 0.803365 0.210762
		outer loop
			vertex -21.4239 -166.325 -330.717
			vertex -19.7784 -164.671 -332.885
			vertex -22.0538 -166.066 -334.527
		endloop
	endfacet 
	facet normal 0.115905 0.86184 0.452346
		outer loop
			vertex -19.7784 -164.671 -332.885
			vertex -19.3725 -166.403 -329.961
			vertex -17.4365 -164.973 -332.731
		endloop
	endfacet 
	facet normal -0.0829649 -0.597689 0.78305
		outer loop
			vertex -21.4809 -169.724 -330.58
			vertex -19.5842 -170.453 -331.057
			vertex -19.0796 -168.499 -329.527
		endloop
	endfacet 
	facet normal 0.074359 -0.577118 0.79849
		outer loop
			vertex -19.5842 -170.453 -331.057
			vertex -17.2358 -169.382 -330.213
			vertex -19.0796 -168.499 -329.527
		endloop
	endfacet 
	facet normal -0.394009 -0.343958 0.831345
		outer loop
			vertex -21.6461 -168.077 -329.931
			vertex -24.5262 -170.651 -332.479
			vertex -21.4809 -169.724 -330.58
		endloop
	endfacet 
	facet normal -0.160791 -0.352572 0.903736
		outer loop
			vertex -19.0796 -168.499 -329.527
			vertex -21.6461 -168.077 -329.931
			vertex -21.4809 -169.724 -330.58
		endloop
	endfacet 
	facet normal -0.668807 0.137142 0.714781
		outer loop
			vertex -24.5262 -170.651 -332.479
			vertex -21.6461 -168.077 -329.931
			vertex -23.255 -167.936 -331.599
		endloop
	endfacet 
	facet normal 0.587744 -0.0592794 0.79333
		outer loop
			vertex -17.2358 -169.382 -330.213
			vertex -15.6957 -168.887 -331.293
			vertex -16.9296 -167.377 -330.036
		endloop
	endfacet 
	facet normal -0.222072 0.801747 0.510337
		outer loop
			vertex -19.7784 -164.671 -332.885
			vertex -21.4239 -166.325 -330.717
			vertex -19.3725 -166.403 -329.961
		endloop
	endfacet 
	facet normal -0.64304 0.43462 0.60425
		outer loop
			vertex -21.6461 -168.077 -329.931
			vertex -21.4239 -166.325 -330.717
			vertex -23.255 -167.936 -331.599
		endloop
	endfacet 
	facet normal -0.102002 0.111744 0.974986
		outer loop
			vertex -19.3725 -166.403 -329.961
			vertex -21.6461 -168.077 -329.931
			vertex -19.0796 -168.499 -329.527
		endloop
	endfacet 
	facet normal 0.066895 0.139895 0.97402
		outer loop
			vertex -16.9296 -167.377 -330.036
			vertex -19.3725 -166.403 -329.961
			vertex -19.0796 -168.499 -329.527
		endloop
	endfacet 
	facet normal 0.227337 -0.167034 0.939089
		outer loop
			vertex -17.2358 -169.382 -330.213
			vertex -16.9296 -167.377 -330.036
			vertex -19.0796 -168.499 -329.527
		endloop
	endfacet 
	facet normal -0.327781 0.436323 0.813195
		outer loop
			vertex -19.3725 -166.403 -329.961
			vertex -21.4239 -166.325 -330.717
			vertex -21.6461 -168.077 -329.931
		endloop
	endfacet 
endsolid Segment_14
